<?xml version="1.0" encoding="UTF-8"?>
<svg version="1.1" xmlns="http://www.w3.org/2000/svg" width="1024" height="1024">
<path d="M0 0 C1.56691594 0.00056958 1.56691594 0.00056958 3.16548675 0.00115067 C4.36576588 -0.00084038 5.56604501 -0.00283143 6.80269623 -0.00488281 C8.15176043 -0.00202923 9.50082444 0.00091638 10.84988827 0.00394398 C12.26968284 0.0035084 13.68947734 0.00263375 15.10927141 0.00135481 C19.02916362 -0.00089281 22.94902877 0.00313477 26.86891752 0.00813287 C31.08911662 0.01243338 35.30931406 0.01099124 39.52951473 0.0102306 C46.84741051 0.00970511 54.16529741 0.01285452 61.48319095 0.01846844 C72.06376238 0.02658006 82.64432949 0.02919831 93.2249037 0.03045643 C110.38932462 0.03264748 127.55374079 0.03930901 144.71815914 0.04875904 C161.39621879 0.05793179 178.07427716 0.06501329 194.75233883 0.06926686 C195.77960258 0.06952958 196.80686634 0.0697923 197.8652593 0.07006299 C203.01850917 0.07136798 208.17175904 0.0726317 213.32500893 0.07387489 C256.10669705 0.08424916 298.88838 0.10186892 341.67006344 0.1241985 C343.042821 2.86971363 342.79545851 5.05276216 342.79590458 8.12751728 C342.7998162 10.05969978 342.7998162 10.05969978 342.80380684 12.03091627 C342.80164444 13.47391641 342.79938777 14.91691641 342.79704708 16.35991627 C342.79819823 17.88226871 342.79978572 19.40462087 342.80177432 20.92697245 C342.80596841 25.12578074 342.80387659 29.32456646 342.8007881 33.52337486 C342.79853455 38.04557584 342.8020134 42.56777283 342.80476803 47.08997303 C342.80922519 55.95508697 342.80824949 64.82019246 342.80535538 73.68530673 C342.80310114 80.88728401 342.80278892 88.08925892 342.8038792 95.29123646 C342.80403243 96.31449633 342.80418567 97.3377562 342.80434354 98.39202395 C342.80466325 100.47046242 342.80498747 102.54890089 342.80531614 104.62733936 C342.80817077 124.13758031 342.80488416 143.64781656 342.79951577 163.15805674 C342.79504775 179.91516493 342.79582368 196.67226621 342.80043453 213.42937428 C342.80578058 232.86765125 342.80789608 252.30592411 342.80482227 271.74420172 C342.8045037 273.81518799 342.80418933 275.88617426 342.8038792 277.95716053 C342.80372493 278.97624582 342.80357065 279.99533111 342.8034117 281.04529777 C342.80254664 288.24239064 342.80400919 295.43948091 342.80635875 302.63657337 C342.80915729 311.40201061 342.80841734 320.16743889 342.80307801 328.9328751 C342.80044173 333.40898076 342.7994347 337.88507146 342.80272716 342.36117703 C342.80569162 346.45311423 342.80409478 350.5450225 342.79874961 354.63695705 C342.79762607 356.12279084 342.79821523 357.60862704 342.8006254 359.0944593 C342.80363568 361.10326446 342.79997131 363.11207641 342.79590458 365.12087971 C342.79574222 366.23997054 342.79557987 367.35906137 342.7954126 368.51206404 C342.67006344 371.1241985 342.67006344 371.1241985 341.67006344 373.1241985 C341.040014 373.13450596 340.40996456 373.14481343 339.76082271 373.15543324 C333.20719059 373.26355791 326.65369429 373.37815123 320.10023922 373.49651295 C317.65397905 373.53984262 315.20768901 373.58151911 312.76137203 373.62151295 C309.24646926 373.67926287 305.73171652 373.74294412 302.21693844 373.80779225 C300.57456203 373.83286099 300.57456203 373.83286099 298.89900631 373.85843617 C297.87825008 373.87838139 296.85749386 373.89832661 295.80580562 373.91887623 C294.90867855 373.93442051 294.01155147 373.94996479 293.08723873 373.96598011 C290.82252812 374.11421878 288.844459 374.49329655 286.67006344 375.1241985 C286.67006344 374.7941985 286.67006344 374.4641985 286.67006344 374.1241985 C280.01317062 374.0989026 273.35629014 374.08135454 266.69936031 374.06926686 C264.43340508 374.06422923 262.16745311 374.05739897 259.90150875 374.04875904 C256.64987296 374.03666853 253.39828005 374.03096457 250.14662594 374.02654225 C249.12888088 374.02138096 248.11113582 374.01621968 247.06255001 374.01090199 C245.65131359 374.01078869 245.65131359 374.01078869 244.21156734 374.01067311 C242.96580425 374.00734219 242.96580425 374.00734219 241.69487423 374.00394398 C239.6004138 373.99510668 239.6004138 373.99510668 237.67006344 375.1241985 C237.67006344 374.4641985 237.67006344 373.8041985 237.67006344 373.1241985 C236.76545879 373.14299061 236.76545879 373.14299061 235.84257931 373.16216236 C207.99373653 373.73623782 180.15043059 374.22643535 152.29506344 374.2491985 C151.21299618 374.25169605 150.13092891 374.25419361 149.01607174 374.25676686 C145.97622262 374.26258085 142.93647578 374.26122372 139.89662594 374.257011 C138.9992773 374.25899494 138.10192867 374.26097889 137.17738765 374.26302296 C136.3585107 374.25991108 135.53963375 374.2567992 134.69594234 374.25359303 C133.63145366 374.25239964 133.63145366 374.25239964 132.54546016 374.25118214 C130.67006344 374.1241985 130.67006344 374.1241985 127.67006344 373.1241985 C127.67006344 373.7841985 127.67006344 374.4441985 127.67006344 375.1241985 C126.68006344 374.7941985 125.69006344 374.4641985 124.67006344 374.1241985 C122.08676114 373.97097491 119.52514105 373.86712961 116.93959469 373.80779225 C115.81396366 373.7766206 115.81396366 373.7766206 114.66559261 373.74481922 C112.27134159 373.67949923 109.87698205 373.62052057 107.48256344 373.5616985 C105.85820331 373.51849657 104.23385411 373.47488174 102.60951656 373.43083912 C98.62980973 373.32383587 94.64999386 373.22251912 90.67006344 373.1241985 C90.67006344 373.7841985 90.67006344 374.4441985 90.67006344 375.1241985 C90.01006344 374.7941985 89.35006344 374.4641985 88.67006344 374.1241985 C86.12391335 373.89247023 83.59610119 373.7052532 81.04506344 373.5616985 C80.33865719 373.5185149 79.63225094 373.47533131 78.90443844 373.43083912 C77.15987807 373.32475099 75.41499647 373.22396961 73.67006344 373.1241985 C73.67006344 373.7841985 73.67006344 374.4441985 73.67006344 375.1241985 C72.68006344 374.7941985 71.69006344 374.4641985 70.67006344 374.1241985 C68.60861236 374.0552075 66.54504942 374.03952123 64.48256344 374.0616985 C62.8525439 374.07523365 62.8525439 374.07523365 61.18959469 374.08904225 C60.35814937 374.10064381 59.52670406 374.11224537 58.67006344 374.1241985 C58.67006344 374.4541985 58.67006344 374.7841985 58.67006344 375.1241985 C56.69006344 375.1241985 54.71006344 375.1241985 52.67006344 375.1241985 C52.67006344 374.7941985 52.67006344 374.4641985 52.67006344 374.1241985 C52.11375744 374.12641911 51.55745144 374.12863972 50.98428768 374.13092762 C45.15990766 374.15316389 39.33553983 374.16818117 33.51112789 374.17913014 C31.34152655 374.18413852 29.17192854 374.19094713 27.00233883 374.19963795 C23.87204069 374.21185725 20.74178744 374.2174619 17.61146969 374.22185475 C16.65172741 374.22701603 15.69198513 374.23217732 14.70315975 374.23749501 C8.94833155 374.23796733 3.36024469 374.03214899 -2.32993656 373.1241985 C-3.70488735 370.37429693 -3.45533236 368.18202163 -3.4557777 365.10246903 C-3.45838545 363.81024727 -3.4609932 362.5180255 -3.46367997 361.18664551 C-3.46151757 359.73902611 -3.4592609 358.29140685 -3.45692021 356.84378773 C-3.45807136 355.3165978 -3.45965884 353.78940814 -3.46164745 352.26221907 C-3.46584154 348.05007861 -3.46374972 343.83796066 -3.46066123 339.6258201 C-3.4584077 335.08932318 -3.4618865 330.55283025 -3.46464115 326.01633412 C-3.46909823 317.12348172 -3.46812269 308.23063773 -3.46522851 299.337785 C-3.46297438 292.11386929 -3.462662 284.88995596 -3.46375233 277.66604 C-3.46398218 276.12655407 -3.46398218 276.12655407 -3.46421667 274.55596741 C-3.46453638 272.47132621 -3.46486059 270.386685 -3.46518926 268.3020438 C-3.46804384 248.73412911 -3.46475731 229.1662191 -3.4593889 209.59830517 C-3.45492021 192.78914422 -3.45569737 175.97999018 -3.46030766 159.17082936 C-3.46565267 139.67359832 -3.46776985 120.1763714 -3.46469539 100.67913973 C-3.46437683 98.60227356 -3.46406246 96.52540739 -3.46375233 94.44854122 C-3.46359805 93.42655111 -3.46344378 92.404561 -3.46328483 91.35160149 C-3.4624195 84.13149649 -3.46388287 76.91139408 -3.46623188 69.69128948 C-3.46902924 60.89947324 -3.46829295 52.10766594 -3.46295114 43.31585073 C-3.46031336 38.82569211 -3.45931036 34.33554842 -3.46260029 29.8453899 C-3.46556165 25.74178571 -3.46397316 21.63821039 -3.45862274 17.53460885 C-3.45749787 16.04340931 -3.45809126 14.55220736 -3.46049853 13.06100934 C-3.46350194 11.04737013 -3.45984951 9.03372416 -3.4557777 7.02008682 C-3.45561535 5.89757851 -3.455453 4.7750702 -3.45528573 3.61854649 C-3.29164889 0.36230442 -3.24494648 0.17297358 0 0 Z M35.67006344 37.1241985 C35.67006344 135.7941985 35.67006344 234.4641985 35.67006344 336.1241985 C124.11006344 336.1241985 212.55006344 336.1241985 303.67006344 336.1241985 C303.67006344 237.4541985 303.67006344 138.7841985 303.67006344 37.1241985 C215.23006344 37.1241985 126.79006344 37.1241985 35.67006344 37.1241985 Z " fill="#000000" transform="translate(282.32993656396866,287.8758015036583)"/>
<path d="M0 0 C4.8332346 3.95652694 9.50137034 7.87821429 12.16699219 13.62353516 C12.82699219 13.95353516 13.48699219 14.28353516 14.16699219 14.62353516 C10.37051148 18.52766654 6.38106312 22.10207348 2.22949219 25.62353516 C1.63458984 26.13142578 1.0396875 26.63931641 0.42675781 27.16259766 C-0.75194829 28.1673963 -1.93465975 29.16751781 -3.12158203 30.16259766 C-4.258768 31.13334242 -5.37562168 32.12844278 -6.47021484 33.14697266 C-10.28574293 36.61846789 -10.28574293 36.61846789 -12.94238281 36.64306641 C-15.22732268 35.41089842 -17.09397164 33.98168245 -19.08300781 32.31103516 C-28.96629618 24.40440446 -39.13545383 21.41568222 -51.83300781 22.62353516 C-59.50537192 24.49640074 -66.09304965 28.25383564 -70.33691406 35.02197266 C-74.51616276 42.95182915 -74.99640696 50.09769305 -75.03613281 58.92041016 C-75.04468292 60.40362762 -75.04468292 60.40362762 -75.05340576 61.91680908 C-75.06282703 64.0045872 -75.06937828 66.09237999 -75.07324219 68.18017578 C-75.08293298 71.34906407 -75.1139781 74.51729921 -75.14550781 77.68603516 C-75.15204043 79.72248967 -75.15728989 81.75894879 -75.16113281 83.79541016 C-75.17347961 84.73116882 -75.18582642 85.66692749 -75.19854736 86.63104248 C-75.16703743 96.08930957 -72.99599173 105.22160087 -66.83300781 112.62353516 C-60.49294027 118.51822605 -53.56545628 121.48108086 -44.83300781 121.62353516 C-32.30643773 120.75742148 -23.63776776 117.02688934 -14.84082031 108.10009766 C-12.83300781 106.62353516 -12.83300781 106.62353516 -10.92675781 106.61181641 C-7.94571529 108.05228285 -5.71158021 110.02265795 -3.20800781 112.18603516 C-2.14886044 113.09185896 -1.08895127 113.99679269 -0.02832031 114.90087891 C0.50245117 115.35575684 1.03322266 115.81063477 1.58007812 116.27929688 C5.36622304 119.48645286 9.27768992 122.54307009 13.16699219 125.62353516 C12.49577359 132.78750287 6.38985562 137.2456626 1.16699219 141.62353516 C-15.94265535 154.29022803 -36.77683598 158.78510941 -57.77832031 156.12353516 C-74.02741904 153.56786669 -86.8507815 146.82431192 -98.83300781 135.62353516 C-98.83300781 134.96353516 -98.83300781 134.30353516 -98.83300781 133.62353516 C-99.49300781 133.62353516 -100.15300781 133.62353516 -100.83300781 133.62353516 C-115.06842926 114.42299982 -117.06436909 93.1266564 -117.08300781 69.99853516 C-117.08368256 69.24408112 -117.0843573 68.48962708 -117.08505249 67.71231079 C-117.05181427 44.31602354 -113.06297005 22.77154941 -96.50878906 5.07666016 C-70.99548174 -18.31364203 -27.93913548 -20.98040035 0 0 Z " fill="#000000" transform="translate(466.8330078125,434.37646484375)"/>
<path d="M0 0 C41.25 0 82.5 0 125 0 C125 12.21 125 24.42 125 37 C118.73 37.33 112.46 37.66 106 38 C106 38.33 106 38.66 106 39 C104.02 39 102.04 39 100 39 C100 38.67 100 38.34 100 38 C98.74023346 38.00333092 98.74023346 38.00333092 97.45501709 38.00672913 C89.39929441 38.02706843 81.34358079 38.04214098 73.28783798 38.05181217 C69.14988834 38.05695187 65.01196052 38.06387922 60.87402344 38.07543945 C44.47696733 38.11996246 28.09253131 38.11787794 11.703125 37.55859375 C10.52151794 37.51960464 9.33991089 37.48061554 8.12249756 37.44044495 C6.52513763 37.37795815 6.52513763 37.37795815 4.89550781 37.31420898 C3.96796692 37.27794907 3.04042603 37.24168915 2.08477783 37.20433044 C0 37 0 37 -1 36 C-1.10088576 33.58673652 -1.13972059 31.20273434 -1.1328125 28.7890625 C-1.13376923 28.06512299 -1.13472595 27.34118347 -1.13571167 26.5953064 C-1.13639353 25.06028151 -1.13453886 23.52525376 -1.13037109 21.99023438 C-1.12503829 19.64186084 -1.13030784 17.29367992 -1.13671875 14.9453125 C-1.13605767 13.45572874 -1.13477588 11.96614511 -1.1328125 10.4765625 C-1.13483673 9.77334869 -1.13686096 9.07013489 -1.13894653 8.34561157 C-1.12427044 5.28562232 -0.97574438 2.92723313 0 0 Z " fill="#000000" transform="translate(652,624)"/>
<path d="M0 0 C1.65 0 3.3 0 5 0 C5 0.33 5 0.66 5 1 C3.35 1 1.7 1 0 1 C0 0.67 0 0.34 0 0 Z " fill="#000000" transform="translate(672,662)"/>
<path d="M0 0 C1.65 0 3.3 0 5 0 C5 0.33 5 0.66 5 1 C3.35 1 1.7 1 0 1 C0 0.67 0 0.34 0 0 Z " fill="#000000" transform="translate(458,662)"/>
<path d="M0 0 C1.65 0 3.3 0 5 0 C5 0.33 5 0.66 5 1 C3.35 1 1.7 1 0 1 C0 0.67 0 0.34 0 0 Z " fill="#000000" transform="translate(400,662)"/>
<path d="M0 0 C0.33 0 0.66 0 1 0 C1 1.65 1 3.3 1 5 C0.67 5 0.34 5 0 5 C0 3.35 0 1.7 0 0 Z " fill="#000000" transform="translate(584,574)"/>
<path d="M0 0 C4 1 4 1 4 1 Z " fill="#000000" transform="translate(489,662)"/>
<path d="M0 0 C4 1 4 1 4 1 Z " fill="#000000" transform="translate(385,662)"/>
<path d="M0 0 C4 1 4 1 4 1 Z " fill="#000000" transform="translate(375,662)"/>
<path d="M0 0 C3 1 3 1 3 1 Z " fill="#000000" transform="translate(760,662)"/>
<path d="M0 0 C3 1 3 1 3 1 Z " fill="#000000" transform="translate(706,662)"/>
<path d="M0 0 C3 1 3 1 3 1 Z " fill="#000000" transform="translate(690,662)"/>
<path d="M0 0 C3 1 3 1 3 1 Z " fill="#000000" transform="translate(664,662)"/>
<path d="M0 0 C3 1 3 1 3 1 Z " fill="#000000" transform="translate(575,662)"/>
<path d="M0 0 C3 1 3 1 3 1 Z " fill="#000000" transform="translate(514,662)"/>
<path d="M0 0 C3 1 3 1 3 1 Z " fill="#000E0E" transform="translate(507,662)"/>
<path d="M0 0 C3 1 3 1 3 1 Z " fill="#000000" transform="translate(471,662)"/>
<path d="M0 0 C3 1 3 1 3 1 Z " fill="#0E0000" transform="translate(434,662)"/>
<path d="M0 0 C0.99 0.495 0.99 0.495 2 1 C1.01 1.495 1.01 1.495 0 2 C0 1.34 0 0.68 0 0 Z " fill="#000000" transform="translate(417,662)"/>
<path d="M0 0 C3 1 3 1 3 1 Z " fill="#000000" transform="translate(362,662)"/>
<path d="M0 0 C3 1 3 1 3 1 Z " fill="#000000" transform="translate(331,662)"/>
<path d="" fill="#000000" transform="translate(0,0)"/>
<path d="" fill="#000000" transform="translate(0,0)"/>
<path d="" fill="#000000" transform="translate(0,0)"/>
<path d="M0 0 C3 1 3 1 3 1 Z " fill="#000000" transform="translate(530,326)"/>
<path d="M0 0 C2 1 2 1 2 1 Z " fill="#000000" transform="translate(746,662)"/>
<path d="M0 0 C2 1 2 1 2 1 Z " fill="#000000" transform="translate(739,662)"/>
<path d="M0 0 C2 1 2 1 2 1 Z " fill="#000000" transform="translate(729,662)"/>
<path d="M0 0 C2 1 2 1 2 1 Z " fill="#000000" transform="translate(703,662)"/>
<path d="M0 0 C2 1 2 1 2 1 Z " fill="#000000" transform="translate(699,662)"/>
<path d="M0 0 C2 1 2 1 2 1 Z " fill="#000000" transform="translate(686,662)"/>
<path d="M0 0 C2 1 2 1 2 1 Z " fill="#000000" transform="translate(618,662)"/>
<path d="M0 0 C2 1 2 1 2 1 Z " fill="#000000" transform="translate(614,662)"/>
<path d="M0 0 C2 1 2 1 2 1 Z " fill="#000000" transform="translate(611,662)"/>
<path d="M0 0 C2 1 2 1 2 1 Z " fill="#000000" transform="translate(600,662)"/>
<path d="M0 0 C2 1 2 1 2 1 Z " fill="#000000" transform="translate(595,662)"/>
<path d="M0 0 C2 1 2 1 2 1 Z " fill="#000000" transform="translate(555,662)"/>
<path d="M0 0 C2 1 2 1 2 1 Z " fill="#000000" transform="translate(528,662)"/>
<path d="M0 0 C2 1 2 1 2 1 Z " fill="#000000" transform="translate(511,662)"/>
<path d="M0 0 C2 1 2 1 2 1 Z " fill="#000000" transform="translate(500,662)"/>
<path d="M0 0 C2 1 2 1 2 1 Z " fill="#000000" transform="translate(483,662)"/>
<path d="M0 0 C2 1 2 1 2 1 Z " fill="#121212" transform="translate(475,662)"/>
<path d="M0 0 C2 1 2 1 2 1 Z " fill="#000000" transform="translate(455,662)"/>
<path d="M0 0 C2 1 2 1 2 1 Z " fill="#000000" transform="translate(451,662)"/>
<path d="M0 0 C2 1 2 1 2 1 Z " fill="#000000" transform="translate(448,662)"/>
<path d="M0 0 C2 1 2 1 2 1 Z " fill="#000000" transform="translate(443,662)"/>
<path d="M0 0 C2 1 2 1 2 1 Z " fill="#000000" transform="translate(438,662)"/>
<path d="M0 0 C2 1 2 1 2 1 Z " fill="#000000" transform="translate(422,662)"/>
<path d="M0 0 C2 1 2 1 2 1 Z " fill="#000000" transform="translate(414,662)"/>
<path d="M0 0 C2 1 2 1 2 1 Z " fill="#000000" transform="translate(411,662)"/>
<path d="M0 0 C2 1 2 1 2 1 Z " fill="#000000" transform="translate(367,662)"/>
<path d="M0 0 C2 1 2 1 2 1 Z " fill="#000000" transform="translate(359,662)"/>
<path d="M0 0 C2 1 2 1 2 1 Z " fill="#000000" transform="translate(347,662)"/>
<path d="M0 0 C2 1 2 1 2 1 Z " fill="#000000" transform="translate(343,662)"/>
<path d="M0 0 C2 1 2 1 2 1 Z " fill="#000000" transform="translate(315,662)"/>
<path d="M0 0 C2 1 2 1 2 1 Z " fill="#000000" transform="translate(295,662)"/>
<path d="" fill="#000000" transform="translate(0,0)"/>
<path d="" fill="#000000" transform="translate(0,0)"/>
<path d="" fill="#000000" transform="translate(0,0)"/>
<path d="" fill="#000000" transform="translate(0,0)"/>
<path d="M0 0 C2 1 2 1 2 1 Z " fill="#000000" transform="translate(520,326)"/>
<path d="" fill="#000000" transform="translate(0,0)"/>
<path d="" fill="#000000" transform="translate(0,0)"/>
<path d="" fill="#000000" transform="translate(0,0)"/>
<path d="" fill="#000000" transform="translate(0,0)"/>
<path d="" fill="#000000" transform="translate(0,0)"/>
<path d="" fill="#000000" transform="translate(0,0)"/>
<path d="" fill="#000000" transform="translate(0,0)"/>
<path d="" fill="#000000" transform="translate(0,0)"/>
<path d="" fill="#000000" transform="translate(0,0)"/>
<path d="" fill="#000000" transform="translate(0,0)"/>
<path d="" fill="#000000" transform="translate(0,0)"/>
<path d="" fill="#000000" transform="translate(0,0)"/>
<path d="" fill="#000000" transform="translate(0,0)"/>
<path d="" fill="#000000" transform="translate(0,0)"/>
<path d="" fill="#000000" transform="translate(0,0)"/>
<path d="" fill="#000000" transform="translate(0,0)"/>
<path d="" fill="#000000" transform="translate(0,0)"/>
<path d="" fill="#000000" transform="translate(0,0)"/>
<path d="" fill="#000000" transform="translate(0,0)"/>
<path d="" fill="#000000" transform="translate(0,0)"/>
<path d="" fill="#000000" transform="translate(0,0)"/>
<path d="" fill="#000000" transform="translate(0,0)"/>
<path d="" fill="#000000" transform="translate(0,0)"/>
<path d="" fill="#000000" transform="translate(0,0)"/>
<path d="" fill="#000000" transform="translate(0,0)"/>
<path d="" fill="#000000" transform="translate(0,0)"/>
<path d="" fill="#000000" transform="translate(0,0)"/>
<path d="" fill="#000000" transform="translate(0,0)"/>
<path d="" fill="#000000" transform="translate(0,0)"/>
<path d="" fill="#FFFFFF" transform="translate(0,0)"/>
<path d="" fill="#000000" transform="translate(0,0)"/>
<path d="" fill="#000000" transform="translate(0,0)"/>
<path d="" fill="#000000" transform="translate(0,0)"/>
<path d="" fill="#404040" transform="translate(0,0)"/>
<path d="" fill="#000000" transform="translate(0,0)"/>
<path d="" fill="#000000" transform="translate(0,0)"/>
<path d="" fill="#000000" transform="translate(0,0)"/>
<path d="" fill="#000000" transform="translate(0,0)"/>
<path d="" fill="#000000" transform="translate(0,0)"/>
<path d="" fill="#000000" transform="translate(0,0)"/>
<path d="" fill="#000000" transform="translate(0,0)"/>
<path d="" fill="#000000" transform="translate(0,0)"/>
<path d="" fill="#000000" transform="translate(0,0)"/>
<path d="" fill="#000000" transform="translate(0,0)"/>
<path d="" fill="#000000" transform="translate(0,0)"/>
<path d="" fill="#000000" transform="translate(0,0)"/>
<path d="" fill="#000000" transform="translate(0,0)"/>
<path d="" fill="#000000" transform="translate(0,0)"/>
<path d="" fill="#000000" transform="translate(0,0)"/>
<path d="" fill="#000000" transform="translate(0,0)"/>
<path d="" fill="#000000" transform="translate(0,0)"/>
<path d="" fill="#000000" transform="translate(0,0)"/>
<path d="" fill="#000000" transform="translate(0,0)"/>
<path d="" fill="#000000" transform="translate(0,0)"/>
<path d="" fill="#000000" transform="translate(0,0)"/>
<path d="" fill="#000000" transform="translate(0,0)"/>
<path d="" fill="#000000" transform="translate(0,0)"/>
<path d="" fill="#000000" transform="translate(0,0)"/>
<path d="" fill="#000000" transform="translate(0,0)"/>
<path d="" fill="#000000" transform="translate(0,0)"/>
<path d="" fill="#000000" transform="translate(0,0)"/>
<path d="" fill="#000000" transform="translate(0,0)"/>
<path d="" fill="#000000" transform="translate(0,0)"/>
<path d="" fill="#000000" transform="translate(0,0)"/>
<path d="" fill="#000000" transform="translate(0,0)"/>
<path d="" fill="#000000" transform="translate(0,0)"/>
<path d="" fill="#000000" transform="translate(0,0)"/>
<path d="" fill="#000000" transform="translate(0,0)"/>
<path d="" fill="#000000" transform="translate(0,0)"/>
<path d="" fill="#000000" transform="translate(0,0)"/>
<path d="" fill="#000000" transform="translate(0,0)"/>
<path d="" fill="#000000" transform="translate(0,0)"/>
<path d="" fill="#000000" transform="translate(0,0)"/>
<path d="" fill="#000000" transform="translate(0,0)"/>
<path d="" fill="#000000" transform="translate(0,0)"/>
<path d="" fill="#000000" transform="translate(0,0)"/>
<path d="" fill="#000000" transform="translate(0,0)"/>
<path d="" fill="#000000" transform="translate(0,0)"/>
<path d="" fill="#000000" transform="translate(0,0)"/>
<path d="" fill="#000000" transform="translate(0,0)"/>
<path d="" fill="#000000" transform="translate(0,0)"/>
<path d="" fill="#000000" transform="translate(0,0)"/>
<path d="" fill="#000000" transform="translate(0,0)"/>
<path d="" fill="#000000" transform="translate(0,0)"/>
<path d="" fill="#000000" transform="translate(0,0)"/>
<path d="" fill="#000000" transform="translate(0,0)"/>
<path d="" fill="#000000" transform="translate(0,0)"/>
<path d="" fill="#000000" transform="translate(0,0)"/>
<path d="" fill="#000000" transform="translate(0,0)"/>
<path d="" fill="#000000" transform="translate(0,0)"/>
<path d="" fill="#000000" transform="translate(0,0)"/>
<path d="" fill="#000000" transform="translate(0,0)"/>
<path d="" fill="#000000" transform="translate(0,0)"/>
<path d="" fill="#000000" transform="translate(0,0)"/>
<path d="" fill="#000000" transform="translate(0,0)"/>
<path d="" fill="#000000" transform="translate(0,0)"/>
<path d="" fill="#000000" transform="translate(0,0)"/>
<path d="" fill="#000000" transform="translate(0,0)"/>
<path d="" fill="#000000" transform="translate(0,0)"/>
<path d="" fill="#FF00FF" transform="translate(0,0)"/>
<path d="" fill="#000000" transform="translate(0,0)"/>
<path d="" fill="#000000" transform="translate(0,0)"/>
<path d="" fill="#000000" transform="translate(0,0)"/>
<path d="" fill="#000000" transform="translate(0,0)"/>
<path d="" fill="#000000" transform="translate(0,0)"/>
<path d="" fill="#000000" transform="translate(0,0)"/>
<path d="" fill="#000000" transform="translate(0,0)"/>
<path d="" fill="#000000" transform="translate(0,0)"/>
<path d="" fill="#000000" transform="translate(0,0)"/>
<path d="" fill="#000000" transform="translate(0,0)"/>
<path d="" fill="#000000" transform="translate(0,0)"/>
<path d="" fill="#000000" transform="translate(0,0)"/>
<path d="" fill="#000000" transform="translate(0,0)"/>
<path d="" fill="#000000" transform="translate(0,0)"/>
<path d="" fill="#000000" transform="translate(0,0)"/>
<path d="" fill="#000000" transform="translate(0,0)"/>
<path d="" fill="#000000" transform="translate(0,0)"/>
<path d="" fill="#000000" transform="translate(0,0)"/>
<path d="" fill="#000000" transform="translate(0,0)"/>
<path d="" fill="#000000" transform="translate(0,0)"/>
<path d="" fill="#000000" transform="translate(0,0)"/>
<path d="" fill="#000000" transform="translate(0,0)"/>
<path d="" fill="#000000" transform="translate(0,0)"/>
<path d="" fill="#000000" transform="translate(0,0)"/>
<path d="" fill="#000000" transform="translate(0,0)"/>
<path d="" fill="#000000" transform="translate(0,0)"/>
<path d="" fill="#000000" transform="translate(0,0)"/>
<path d="" fill="#000000" transform="translate(0,0)"/>
<path d="" fill="#000000" transform="translate(0,0)"/>
<path d="" fill="#000000" transform="translate(0,0)"/>
<path d="" fill="#000000" transform="translate(0,0)"/>
<path d="" fill="#000000" transform="translate(0,0)"/>
<path d="" fill="#000000" transform="translate(0,0)"/>
<path d="" fill="#000000" transform="translate(0,0)"/>
<path d="" fill="#000000" transform="translate(0,0)"/>
<path d="" fill="#000000" transform="translate(0,0)"/>
<path d="" fill="#000000" transform="translate(0,0)"/>
<path d="" fill="#000000" transform="translate(0,0)"/>
<path d="" fill="#000000" transform="translate(0,0)"/>
<path d="" fill="#000000" transform="translate(0,0)"/>
<path d="" fill="#000000" transform="translate(0,0)"/>
<path d="" fill="#000000" transform="translate(0,0)"/>
<path d="" fill="#000000" transform="translate(0,0)"/>
<path d="" fill="#000000" transform="translate(0,0)"/>
<path d="" fill="#000000" transform="translate(0,0)"/>
<path d="" fill="#000000" transform="translate(0,0)"/>
<path d="" fill="#000000" transform="translate(0,0)"/>
<path d="" fill="#000000" transform="translate(0,0)"/>
<path d="" fill="#000000" transform="translate(0,0)"/>
<path d="" fill="#000000" transform="translate(0,0)"/>
<path d="" fill="#000000" transform="translate(0,0)"/>
<path d="" fill="#000000" transform="translate(0,0)"/>
<path d="" fill="#000000" transform="translate(0,0)"/>
<path d="" fill="#000000" transform="translate(0,0)"/>
<path d="" fill="#000000" transform="translate(0,0)"/>
<path d="" fill="#000000" transform="translate(0,0)"/>
<path d="" fill="#000000" transform="translate(0,0)"/>
<path d="" fill="#000000" transform="translate(0,0)"/>
<path d="" fill="#000000" transform="translate(0,0)"/>
<path d="" fill="#000000" transform="translate(0,0)"/>
<path d="" fill="#000000" transform="translate(0,0)"/>
<path d="" fill="#000000" transform="translate(0,0)"/>
<path d="" fill="#000000" transform="translate(0,0)"/>
<path d="" fill="#000000" transform="translate(0,0)"/>
<path d="" fill="#000000" transform="translate(0,0)"/>
<path d="" fill="#000000" transform="translate(0,0)"/>
<path d="" fill="#FFFFFF" transform="translate(0,0)"/>
<path d="" fill="#000000" transform="translate(0,0)"/>
<path d="" fill="#000000" transform="translate(0,0)"/>
<path d="" fill="#000000" transform="translate(0,0)"/>
<path d="" fill="#000000" transform="translate(0,0)"/>
<path d="" fill="#000000" transform="translate(0,0)"/>
<path d="" fill="#000000" transform="translate(0,0)"/>
<path d="" fill="#000000" transform="translate(0,0)"/>
<path d="" fill="#000000" transform="translate(0,0)"/>
<path d="" fill="#000000" transform="translate(0,0)"/>
<path d="" fill="#000000" transform="translate(0,0)"/>
<path d="" fill="#000000" transform="translate(0,0)"/>
<path d="" fill="#000000" transform="translate(0,0)"/>
<path d="" fill="#000000" transform="translate(0,0)"/>
<path d="" fill="#000000" transform="translate(0,0)"/>
<path d="" fill="#000000" transform="translate(0,0)"/>
<path d="" fill="#000000" transform="translate(0,0)"/>
<path d="" fill="#000000" transform="translate(0,0)"/>
<path d="" fill="#000000" transform="translate(0,0)"/>
<path d="" fill="#000000" transform="translate(0,0)"/>
</svg>
