<?xml version="1.0" encoding="UTF-8"?>
<svg version="1.1" xmlns="http://www.w3.org/2000/svg" width="512" height="512">
<path d="M0 0 C2.97449185 -0.00071817 5.94897928 -0.00286677 8.92347002 -0.00549722 C19.35941017 -0.01470906 29.79533768 -0.01883753 40.23128176 -0.01804566 C49.86333396 -0.01744662 59.49532986 -0.02797526 69.12736785 -0.04378933 C77.47555543 -0.05699282 85.8237249 -0.06222424 94.1719228 -0.06159025 C99.12291607 -0.06133891 104.0738592 -0.06398322 109.02484179 -0.0747683 C162.91378124 -0.18396199 216.96716513 0.52552842 260.73665285 36.16725707 C261.43661379 36.72413207 262.13657473 37.28100707 262.8577466 37.85475707 C290.95812612 60.88580309 304.14821101 99.42631455 307.98665285 134.35475707 C309.41810837 150.23243071 309.88739545 166.09994049 309.88191652 182.03590941 C309.88492056 183.82267362 309.88832587 185.60943719 309.89209414 187.39619994 C309.90081393 192.18613689 309.90326715 196.97605591 309.90390992 201.76600003 C309.90462755 204.77816835 309.90677516 207.79033231 309.90940714 210.80249953 C309.91862227 221.36695934 309.92274704 231.93140666 309.92195559 242.49587035 C309.9213565 252.25232144 309.93188508 262.00871695 309.94769925 271.765154 C309.96089572 280.21606499 309.96613444 288.66695809 309.96550018 297.11787927 C309.96524863 302.1320125 309.96790509 307.14609625 309.97867823 312.16021895 C310.08599331 365.85523928 309.22598826 419.58491444 273.73665285 463.16725707 C273.17977785 463.86721801 272.62290285 464.56717895 272.04915285 465.28835082 C248.92816215 493.49847263 210.58873872 506.31979031 175.61165285 510.41725707 C152.95129565 512.57853898 130.21045597 512.33142096 107.4733057 512.33451414 C104.49881386 512.33523232 101.52432642 512.33738091 98.54983568 512.34001136 C88.11389553 512.3492232 77.67796803 512.35335167 67.24202394 512.3525598 C57.60997174 512.35196076 47.97797584 512.36248941 38.34593785 512.37830347 C29.99775027 512.39150696 21.6495808 512.39673838 13.3013829 512.3961044 C8.35038963 512.39585305 3.3994465 512.39849736 -1.55153608 512.40928245 C-63.20816517 512.53419528 -63.20816517 512.53419528 -87.26334715 507.16725707 C-88.38144773 506.92217406 -88.38144773 506.92217406 -89.52213621 506.67213988 C-113.38351234 501.29114593 -134.30428841 491.60572031 -153.26334715 476.16725707 C-153.96330809 475.61038207 -154.66326902 475.05350707 -155.3844409 474.47975707 C-183.48482042 451.44871105 -196.67490531 412.90819959 -200.51334715 377.97975707 C-201.94480267 362.10208343 -202.41408975 346.23457365 -202.40861082 330.29860473 C-202.41161486 328.51184052 -202.41502016 326.72507696 -202.41878843 324.9383142 C-202.42750823 320.14837725 -202.42996145 315.35845823 -202.43060422 310.56851411 C-202.43132185 307.55634579 -202.43346946 304.54418183 -202.43610144 301.53201461 C-202.44531657 290.9675548 -202.44944134 280.40310749 -202.44864988 269.83864379 C-202.4480508 260.0821927 -202.45857938 250.32579719 -202.47439355 240.56936014 C-202.48759002 232.11844915 -202.49282874 223.66755605 -202.49219447 215.21663487 C-202.49194292 210.20250164 -202.49459939 205.18841789 -202.50537252 200.17429519 C-202.61268761 146.47927486 -201.75268255 92.74959971 -166.26334715 49.16725707 C-165.70647215 48.46729613 -165.14959715 47.7673352 -164.57584715 47.04616332 C-141.45485644 18.83604151 -103.11543302 6.01472383 -68.13834715 1.91725707 C-45.47798995 -0.24402483 -22.73715026 0.00309319 0 0 Z M-52.65861082 48.07228637 C-53.88735835 48.15195805 -55.11610588 48.23162972 -56.38208818 48.3137157 C-81.00353823 50.10417255 -104.39013233 56.56496566 -123.26334715 73.16725707 C-124.02518309 73.83370238 -124.78701902 74.5001477 -125.5719409 75.18678832 C-149.77046495 97.79164874 -154.02668514 132.33208951 -155.16941786 163.66787505 C-155.53145797 177.15585795 -155.42870783 190.6588728 -155.43060422 204.15056729 C-155.43132227 207.02872792 -155.43347064 209.906884 -155.43610144 212.78504348 C-155.44531436 222.88266585 -155.44944163 232.98027516 -155.44864988 243.0779016 C-155.4480509 252.39810119 -155.45857806 261.71824258 -155.47439355 271.03842747 C-155.4875972 279.11566863 -155.49282845 287.19289108 -155.49219447 295.27014291 C-155.49194312 300.06071167 -155.49458783 304.85122862 -155.50537252 309.64178634 C-157.18774555 375.57355758 -157.18774555 375.57355758 -129.26334715 433.16725707 C-128.26367918 434.31001098 -128.26367918 434.31001098 -127.2438159 435.47585082 C-104.61298351 459.70217789 -70.11171756 463.94140135 -38.75816298 465.07433486 C-25.28250128 465.43263365 -11.79226864 465.3326179 1.68703151 465.33451414 C4.56318982 465.33523225 7.43934357 465.33738075 10.31550074 465.34001136 C20.40779207 465.34922486 30.50007034 465.35335154 40.59236574 465.3525598 C49.90459295 465.35196102 59.21676186 465.36248403 68.52897435 465.37830347 C76.60113565 465.39151291 84.67327822 465.39673812 92.7454502 465.3961044 C97.53213846 465.39585318 102.31877486 465.39848978 107.10545206 465.40928245 C124.80513234 465.44635228 142.46310665 465.40907441 160.13191652 464.26222777 C161.97503782 464.14272026 161.97503782 464.14272026 163.85539389 464.02079844 C188.47684394 462.23034159 211.86343803 455.76954848 230.73665285 439.16725707 C231.49848879 438.50081176 232.26032473 437.83436645 233.0452466 437.14772582 C257.24377065 414.5428654 261.49999084 380.00242463 262.64272356 348.66663909 C263.00476368 335.17865619 262.90201353 321.67564134 262.90390992 308.18394685 C262.90462797 305.30578622 262.90677634 302.42763015 262.90940714 299.54947066 C262.91862007 289.45184829 262.92274733 279.35423898 262.92195559 269.25661254 C262.9213566 259.93641295 262.93188376 250.61627157 262.94769925 241.29608667 C262.9609029 233.21884551 262.96613415 225.14162306 262.96550018 217.06437123 C262.96524883 212.27380247 262.96789354 207.48328552 262.97867823 202.6927278 C264.66105125 136.76095656 264.66105125 136.76095656 236.73665285 79.16725707 C236.07020754 78.40542113 235.40376223 77.6435852 234.7171216 76.85866332 C218.88076243 59.90582614 196.44556228 52.67388911 174.04915285 49.47975707 C173.22608644 49.36027709 172.40302004 49.24079711 171.55501223 49.11769652 C149.81818825 46.27718234 127.65840887 47.00307692 105.78627419 47 C102.91011588 46.99928189 100.03396213 46.99713339 97.15780497 46.99450278 C87.06551363 46.98528928 76.97323536 46.9811626 66.88093996 46.98195434 C57.56871275 46.98255312 48.25654384 46.97203011 38.94433135 46.95621067 C30.87217005 46.94300123 22.80002748 46.93777602 14.7278555 46.93840975 C9.94116724 46.93866096 5.15453084 46.93602436 0.36785364 46.9252317 C-17.33182664 46.88816187 -34.98980095 46.92543973 -52.65861082 48.07228637 Z " fill="#FFFFFF" transform="translate(202.26334714889526,-0.16725707054138184)"/>
<path d="M0 0 C2.48512095 2.18552368 4.88845843 4.43264864 7.27734375 6.72265625 C8.0971875 7.47933594 8.91703125 8.23601562 9.76171875 9.015625 C32.89384277 31.03424616 46.52180347 63.96405724 47.48046875 95.74609375 C48.02538194 133.05355813 36.27611403 166.55033036 10.27734375 193.72265625 C9.55546875 194.51929688 8.83359375 195.3159375 8.08984375 196.13671875 C-14.35187962 220.01895814 -47.36717167 232.701315 -79.7109375 233.9375 C-114.94844069 234.82137295 -148.47643094 223.22157308 -174.36328125 198.984375 C-175.141875 198.23800781 -175.92046875 197.49164063 -176.72265625 196.72265625 C-177.95242187 195.58763672 -177.95242187 195.58763672 -179.20703125 194.4296875 C-202.33915527 172.41106634 -215.96711597 139.48125526 -216.92578125 107.69921875 C-217.47033466 70.41638657 -205.73815371 36.86144807 -179.72265625 9.72265625 C-178.96597656 8.9028125 -178.20929688 8.08296875 -177.4296875 7.23828125 C-131.22283272 -41.30529865 -50.27052183 -42.04837048 0 0 Z M-141.72265625 38.72265625 C-142.48449219 39.38910156 -143.24632812 40.05554688 -144.03125 40.7421875 C-158.30437176 54.07531164 -168.87101186 75.13483535 -169.72265625 94.72265625 C-169.77421875 95.72296875 -169.82578125 96.72328125 -169.87890625 97.75390625 C-170.49278434 120.4673955 -162.7529432 141.63647053 -147.72265625 158.72265625 C-146.72298828 159.86541016 -146.72298828 159.86541016 -145.703125 161.03125 C-132.37000086 175.30437176 -111.31047715 185.87101186 -91.72265625 186.72265625 C-90.72234375 186.77421875 -89.72203125 186.82578125 -88.69140625 186.87890625 C-65.977917 187.49278434 -44.80884197 179.7529432 -27.72265625 164.72265625 C-26.96082031 164.05621094 -26.19898438 163.38976562 -25.4140625 162.703125 C-11.14094074 149.37000086 -0.57430064 128.31047715 0.27734375 108.72265625 C0.32890625 107.72234375 0.38046875 106.72203125 0.43359375 105.69140625 C1.04747184 82.977917 -6.6923693 61.80884197 -21.72265625 44.72265625 C-22.38910156 43.96082031 -23.05554688 43.19898438 -23.7421875 42.4140625 C-37.07531164 28.14094074 -58.13483535 17.57430064 -77.72265625 16.72265625 C-78.72296875 16.67109375 -79.72328125 16.61953125 -80.75390625 16.56640625 C-103.4673955 15.95252816 -124.63647053 23.6923693 -141.72265625 38.72265625 Z " fill="#FFFFFF" transform="translate(340.72265625,154.27734375)"/>
<path d="M0 0 C6.48193639 5.31024308 10.85387115 12.00903975 12.48046875 20.3046875 C13.31387375 29.44008851 11.77526047 37.51151967 6.41796875 45.0546875 C0.25424349 52.34026234 -7.07133312 56.00954922 -16.5 57.18359375 C-26.59116447 57.58828469 -33.69250339 54.45817658 -41.20703125 47.9921875 C-48.07110679 40.01501862 -50.87808838 32.32017426 -50.3984375 21.59765625 C-49.09615079 13.07237728 -44.83831568 5.90124306 -38.26953125 0.3671875 C-26.53452359 -7.9672233 -11.92877515 -8.02649367 0 0 Z " fill="#FFFFFF" transform="translate(411.51953125,93.6953125)"/>
</svg>
