<?xml version="1.0" encoding="UTF-8"?>
<svg version="1.1" xmlns="http://www.w3.org/2000/svg" width="512" height="512">
<path d="M0 0 C2.34046249 -0.00571025 4.6809222 -0.01267703 7.02137756 -0.02079773 C13.34796704 -0.03867292 19.67441738 -0.0375712 26.00102448 -0.03185534 C31.96804672 -0.02836174 37.93505209 -0.03633983 43.90206905 -0.043216 C56.44396487 -0.05690931 68.98579811 -0.05152599 81.52769246 -0.04003078 C92.96833757 -0.03010438 104.40882081 -0.04303442 115.84944097 -0.06696498 C127.63371588 -0.09142614 139.41791562 -0.10094652 151.20221537 -0.09431225 C157.80334253 -0.09083521 164.40436134 -0.09329178 171.00547218 -0.11056328 C177.21661144 -0.12610649 183.42744335 -0.12199514 189.63857079 -0.10325813 C191.90717895 -0.09959247 194.17581026 -0.10262105 196.44439697 -0.11314392 C212.08249607 -0.18009671 226.97330493 0.52727093 241.05932617 8.15405273 C241.71827881 8.49911865 242.37723145 8.84418457 243.05615234 9.19970703 C264.51584789 20.72072579 279.22668625 38.75668955 286.53198242 61.89041138 C289.12396877 71.44431105 288.98454894 80.50057787 288.72960281 90.32752419 C288.61038521 95.37381468 288.5822115 100.42111642 288.53588867 105.46850586 C288.47062718 111.8488993 288.37976876 118.22615306 288.2019043 124.60449219 C286.01536225 150.22717005 286.01536225 150.22717005 295.3104248 172.67176819 C298.24775629 175.10619784 301.27245566 177.15701339 304.57403564 179.06442261 C307.92556526 181.13080222 310.48711198 183.81482594 313.19213867 186.64624023 C314.1505882 187.59926974 315.11147403 188.54985625 316.07495117 189.49780273 C317.4594043 190.87452148 317.4594043 190.87452148 318.87182617 192.27905273 C319.59160645 192.98336426 319.59160645 192.98336426 320.32592773 193.7019043 C338.20332262 211.19663923 351.85994644 235.22439675 352.88104725 260.76073933 C352.88532073 261.93292609 352.88959421 263.10511286 352.89399719 264.31282043 C352.89767388 264.97172026 352.90135057 265.63062008 352.90513867 266.30948657 C352.9160751 268.49832474 352.92000218 270.68711529 352.92382812 272.87597656 C352.93010068 274.45369615 352.93674818 276.03141429 352.94374084 277.60913086 C352.96470045 282.77643827 352.97513998 287.94374568 352.98510742 293.11108398 C352.98915889 294.89837852 352.99327592 296.68567291 352.9974575 298.47296715 C353.01649637 306.87819756 353.03072659 315.28341931 353.03906947 323.68866712 C353.0488182 333.34763728 353.07508116 343.00637683 353.11557037 352.66526586 C353.14588508 360.15777254 353.16055304 367.65021373 353.16385049 375.14278048 C353.16618471 379.60460243 353.17492933 384.06617772 353.20031166 388.52793312 C353.2238661 392.73631804 353.22771782 396.9442987 353.21755028 401.15273285 C353.21706127 402.68195898 353.22318953 404.21120691 353.23710632 405.7403698 C353.49996661 436.38344865 341.0487402 462.13438586 320.23510742 484.04858398 C295.27744732 508.31828409 264.5040996 513.04063372 231.1914072 512.92695141 C227.21585504 512.91780165 223.24036984 512.93191918 219.26483154 512.94287109 C211.50074019 512.96055631 203.73680445 512.95686129 195.97270727 512.94522053 C189.65653563 512.9361468 183.34040726 512.93497914 177.02423096 512.9393158 C175.67020697 512.94023519 175.67020697 512.94023519 174.28882897 512.94117317 C172.45442373 512.94245221 170.62001851 512.94374906 168.7856133 512.94506353 C151.62825235 512.95644004 134.47097721 512.94340178 117.31363034 512.92186207 C102.62660581 512.90399376 87.9397078 512.90709869 73.25268555 512.92553711 C56.15215667 512.94699578 39.0517028 512.95534167 21.95116234 512.94308805 C20.12391537 512.941814 18.29666838 512.94055652 16.46942139 512.9393158 C15.57063582 512.93869869 14.67185024 512.93808159 13.74582875 512.93744579 C7.44521907 512.93400784 1.14465741 512.93978747 -5.15594482 512.94923401 C-12.84571642 512.96051111 -20.53532493 512.95729495 -28.22507811 512.93611103 C-32.14033946 512.92567679 -36.05533 512.9213465 -39.97058868 512.93470764 C-76.21621809 513.04795882 -104.29708266 505.1570315 -130.89770508 479.89233398 C-150.89850959 459.32457753 -159.93683625 431.79528488 -159.77075195 403.57568359 C-159.77619349 401.98486192 -159.78332736 400.3940453 -159.79199219 398.80323792 C-159.80998613 394.54283817 -159.80325928 390.28283258 -159.79047585 386.02242732 C-159.78022394 381.52743907 -159.78977469 377.03248067 -159.79602051 372.53749084 C-159.80326117 364.99547372 -159.79380327 357.45361419 -159.7746582 349.91162109 C-159.75288847 341.23639075 -159.75995607 332.56153656 -159.78196383 323.88631529 C-159.80021123 316.38847642 -159.80263108 308.89074969 -159.79220915 301.39289576 C-159.7860262 296.93634138 -159.78499317 292.47996287 -159.7983551 288.02342033 C-159.81005061 283.8312506 -159.80164289 279.63955824 -159.77877808 275.44743919 C-159.77356344 273.92425574 -159.77487743 272.40103092 -159.78382874 270.87786484 C-159.94494375 240.63592149 -147.32584108 214.47267723 -126.31176758 193.23217773 C-124.42136433 191.33850352 -122.52485622 189.45131498 -120.62353516 187.56860352 C-118.68499823 185.6484309 -116.75469171 183.72026817 -114.82543945 181.79077148 C-113.57135392 180.54159977 -112.31681223 179.29288581 -111.06176758 178.04467773 C-110.21454384 177.19912323 -110.21454384 177.19912323 -109.35020447 176.33648682 C-108.79925613 175.79191833 -108.2483078 175.24734985 -107.68066406 174.6862793 C-107.13556183 174.13009415 -106.59045959 173.573909 -106.02883911 173.00086975 C-104.25317383 171.40405273 -104.25317383 171.40405273 -102.07980347 170.14598083 C-98.89917439 168.13269504 -96.69702967 166.32548291 -95.81808281 162.52056503 C-95.07685555 156.42368023 -95.29142237 150.28600445 -95.39379883 144.15795898 C-95.39644074 142.14363222 -95.39496863 140.12929628 -95.3895874 138.11497498 C-95.38381351 132.81221669 -95.42220594 127.51079387 -95.47344971 122.20831299 C-95.55095285 113.75569602 -95.57489299 105.303198 -95.57335663 96.8502636 C-95.58109906 93.92103936 -95.61582222 90.99307105 -95.65362549 88.06410217 C-95.7495724 74.02335245 -94.31873129 60.67931118 -87.50317383 48.09155273 C-86.98557495 47.10312378 -86.98557495 47.10312378 -86.45751953 46.09472656 C-74.92975438 24.6224648 -56.95050993 10.02317604 -33.85193348 2.6361227 C-22.68275122 -0.41175429 -11.4928264 -0.02538539 0 0 Z M-44.23754883 60.61499023 C-62.14781798 85.39780452 -57.79300398 135.67941931 -59.06567383 165.02905273 C-59.11109707 166.04883193 -59.15652032 167.06861114 -59.20332003 168.11929274 C-61.38421748 218.57632674 -60.19630424 262.11689252 -25.07316399 301.0683136 C-16.85926436 309.99215557 -8.03009829 318.19790942 1.05932617 326.21655273 C1.69383934 326.77884866 2.3283525 327.34114458 2.98209333 327.92047977 C45.97043792 367.94487806 45.97043792 367.94487806 99.97338867 383.71264648 C114.1089785 382.55663034 128.55170811 377.84627869 138.72827148 367.69677734 C144.18061484 362.47912746 150.1233091 358.16730892 156.28881836 353.83203125 C170.28375669 343.90091506 183.56740149 333.24509822 196.49682617 321.96655273 C197.0824478 321.4573592 197.66806943 320.94816566 198.27143717 320.42354202 C229.32132902 293.30441195 248.88152882 266.34798121 251.95121896 224.31530207 C253.16881162 204.82951146 252.95689254 185.40145984 252.18432617 165.90405273 C252.1452886 164.88232672 252.10625103 163.86060071 252.0660305 162.8079133 C251.22152891 141.0590487 249.83646694 119.36166048 247.67431641 97.70288086 C247.60066785 96.94807501 247.5270193 96.19326916 247.45113897 95.41559041 C245.89386619 79.75399939 243.75828827 65.19541223 231.71557617 53.99780273 C218.07663793 42.95675749 203.90186724 42.9604765 187.1418457 43 C184.95444389 42.99429111 182.76704506 42.98732485 180.57965088 42.97920227 C174.66221951 42.96131283 168.74493677 42.9624314 162.82748652 42.96814466 C157.87737528 42.97124272 152.92729233 42.96513715 147.97718513 42.95910591 C135.62715271 42.94427509 123.27720122 42.94786242 110.92716895 42.95996922 C100.89352591 42.96928033 90.86003623 42.95993629 80.82641602 42.9375 C69.1462476 42.91147793 57.46618303 42.89907133 45.78598487 42.90568775 C39.61359749 42.90905047 33.44135301 42.90668775 27.26898575 42.88943672 C21.46251727 42.8739155 15.6563779 42.87798069 9.84992218 42.89674187 C7.72679836 42.90041346 5.60364987 42.89736132 3.48054886 42.88685608 C-15.93078772 42.79818774 -30.91335539 45.19433279 -44.23754883 60.61499023 Z M-115.25317383 260.40405273 C-116.12127139 264.15439821 -116.38481914 267.6322771 -116.40034485 271.47834778 C-116.40750015 272.69897919 -116.41465546 273.9196106 -116.42202759 275.17723083 C-116.42486757 276.52212499 -116.42757934 277.86701942 -116.43017578 279.21191406 C-116.43644584 280.6349504 -116.44309312 282.05798511 -116.4500885 283.48101807 C-116.47108188 288.14936189 -116.48149237 292.81770583 -116.49145508 297.48608398 C-116.4955056 299.09944869 -116.49962261 300.71281323 -116.50380516 302.3261776 C-116.52285324 309.91448838 -116.53708025 317.50278951 -116.54541713 325.09111959 C-116.5551625 333.81513267 -116.58141259 342.53889021 -116.62191802 351.26281339 C-116.65223031 358.0265923 -116.66690056 364.79029865 -116.67019814 371.55414408 C-116.67253313 375.58334411 -116.68128734 379.61227109 -116.70665932 383.64139748 C-116.73020869 387.44265753 -116.73406757 391.24347002 -116.72389793 395.04478455 C-116.72317861 397.07658266 -116.7420831 399.10835944 -116.76196289 401.14006042 C-116.652121 420.93947963 -110.22603516 438.14891138 -96.25317383 452.40405273 C-76.7953603 469.14165838 -55.76694796 470.01469875 -31.25325584 469.92695141 C-27.46857276 469.91781174 -23.68396048 469.93191431 -19.89929199 469.94287109 C-12.50590521 469.96056682 -5.11268175 469.95685654 2.28071117 469.94522053 C8.29469825 469.936151 14.30863987 469.93497734 20.32263184 469.9393158 C21.18175714 469.93992873 22.04088244 469.94054166 22.92604184 469.94117317 C24.67186961 469.94245219 26.41769736 469.94374905 28.1635251 469.94506353 C44.49674717 469.95644312 60.82987913 469.94339692 77.16308641 469.92186207 C91.148076 469.90399347 105.13293273 469.90709832 119.11791992 469.92553711 C135.39658669 469.9469903 151.67517468 469.95534473 167.95385361 469.94308805 C169.69290923 469.94181399 171.43196486 469.9405565 173.17102051 469.9393158 C174.02645171 469.93869869 174.88188292 469.93808159 175.76323628 469.93744579 C181.76319743 469.93400621 187.76310819 469.93979105 193.76306152 469.94923401 C201.08476796 469.96050498 208.40630309 469.95730764 215.72799015 469.93611103 C219.4566699 469.92566864 223.18506505 469.92136075 226.91374207 469.93470764 C252.4110344 470.01829065 273.5817106 468.18966107 292.74682617 449.40405273 C305.87007697 434.14800163 310.4103853 416.95745164 310.21679688 397.17285156 C310.21730757 395.73034507 310.21957533 394.28783833 310.22343445 392.84533691 C310.22878143 388.98430796 310.20964638 385.12377215 310.18533349 381.26283097 C310.16381296 377.20133504 310.16462356 373.13983672 310.16264343 369.07829285 C310.15623089 362.27427841 310.13510653 355.47044607 310.10351562 348.66650391 C310.06304771 339.93931585 310.04579442 331.21224541 310.03620625 322.48497486 C310.02790547 314.9567576 310.01068515 307.42856504 309.99116874 299.90036941 C309.98712443 298.28947832 309.98338415 296.67858644 309.97994637 295.06769395 C309.97015225 290.48439437 309.95563787 285.90116478 309.93310738 281.31790924 C309.9269991 279.93159047 309.92254109 278.54526328 309.91986465 277.15893364 C309.91586609 275.26538961 309.90509692 273.3718635 309.89399719 271.47834778 C309.88758697 269.89039005 309.88758697 269.89039005 309.88104725 268.27035236 C309.75341302 265.54471526 309.36120079 263.05826717 308.74682617 260.40405273 C304.246817 264.17129414 299.95525341 268.05572914 295.82943726 272.22810364 C295.00117965 273.059313 295.00117965 273.059313 294.15618956 273.90731448 C292.32640759 275.74474884 290.50026689 277.58575857 288.67407227 279.42675781 C287.35449658 280.7531719 286.03466549 282.07933194 284.71459961 283.40525818 C281.88091912 286.25222606 279.04866847 289.10060611 276.21741867 291.94999123 C271.73110011 296.46426847 267.23926414 300.97302819 262.74624634 305.4806366 C261.2041999 307.02782644 259.66216008 308.57502288 258.12012672 310.12222576 C257.34808065 310.8968574 256.57603457 311.67148904 255.78059316 312.46959436 C245.32992931 322.95621644 234.88399659 333.44751608 224.44848633 343.94921875 C217.39775647 351.04458228 210.33981475 358.13268722 203.27376616 365.21279639 C199.54171149 368.95288764 195.81340452 372.69654762 192.09400558 376.44922829 C188.59124961 379.98327339 185.07906842 383.50767934 181.55976868 387.02524757 C180.27808438 388.30960452 178.99977748 389.59734329 177.72534561 390.88889694 C167.90041104 400.83994502 157.63630571 409.51049867 144.93432617 415.65405273 C143.94384277 416.13962646 143.94384277 416.13962646 142.93334961 416.63500977 C135.7699473 420.03381554 128.40768528 422.40802721 120.74682617 424.40405273 C119.3469043 424.77336914 119.3469043 424.77336914 117.91870117 425.15014648 C90.64295048 430.93228662 60.96752102 424.60407575 37.65841484 409.73930264 C27.70467637 402.78658916 19.27332901 394.20222007 10.75415039 385.62255859 C9.38514913 384.25135148 8.01569542 382.88059596 6.64582825 381.51025391 C3.71832185 378.57983395 0.79397598 375.64631023 -2.12787247 372.71024895 C-6.74459438 368.07113455 -11.36851058 363.43923502 -15.99337769 358.8082428 C-23.2984136 351.49186703 -30.59875129 344.17082423 -37.89702213 336.84770066 C-50.99608506 323.7041246 -64.10092981 310.56631877 -77.21087825 297.43360049 C-81.81198353 292.82407062 -86.4102663 288.21174842 -91.00632215 283.59718406 C-93.85321181 280.73969537 -96.70209523 277.88420074 -99.55149269 275.02921295 C-100.87749038 273.69972893 -102.20261489 272.3693734 -103.52682686 271.03811073 C-105.32560979 269.22995635 -107.12738311 267.42483691 -108.92996216 265.62046814 C-109.72560064 264.81841404 -109.72560064 264.81841404 -110.53731263 264.00015682 C-112.54984986 261.50908083 -112.54984986 261.50908083 -115.25317383 260.40405273 Z " fill="#000000" transform="translate(159.253173828125,-0.404052734375)"/>
<path d="M0 0 C1.7634375 -0.01160156 1.7634375 -0.01160156 3.5625 -0.0234375 C9.86112759 0.7066307 13.96848417 3.60083651 18 8.375 C21.62351831 13.55651315 22.45586482 18.21178023 22.53125 24.46875 C20.77242996 34.09053022 13.96097605 39.92578357 7.25 46.4375 C6.27516923 47.40081063 5.30120464 48.36499863 4.328125 49.33007812 C-0.32169959 53.9200198 -5.06560631 58.34917794 -10.02050781 62.60717773 C-14.02202193 66.18080424 -17.73813148 70.05274836 -21.5 73.875 C-30.4536549 82.97237328 -30.4536549 82.97237328 -34.96875 86.84375 C-39.91167665 91.08688046 -44.43106357 95.73683726 -49 100.375 C-54.26557259 105.720354 -59.52177064 110.98511328 -65.24145508 115.84741211 C-67.12290398 117.48176249 -68.90205346 119.19934177 -70.6875 120.9375 C-83.1698746 131.8688103 -98.71930915 133.25132479 -114.49609375 132.5703125 C-129.09648289 131.43143659 -139.76856868 123.05459027 -150 113.375 C-150.9957816 112.45528044 -151.9932435 111.53737753 -152.9921875 110.62109375 C-157.62044936 106.37458112 -162.22491183 102.10291647 -166.8125 97.8125 C-167.45251953 97.21421387 -168.09253906 96.61592773 -168.75195312 95.99951172 C-170.0362066 94.79722497 -171.31877756 93.59313832 -172.59960938 92.38720703 C-176.20995023 88.99850413 -179.9027415 85.75728144 -183.6875 82.5625 C-188.85077542 77.89751072 -191.4367011 73.56378652 -192.3671875 66.64453125 C-192.66022884 60.39585555 -191.77774893 55.43784827 -188 50.375 C-182.82499382 44.7489037 -177.78291942 42.37412736 -170.125 42 C-159.78714336 42.32305802 -153.82713925 48.92050827 -146.70214844 55.74951172 C-143.68281398 58.63286353 -140.61847021 61.46809696 -137.5625 64.3125 C-136.29398969 65.49579243 -135.02576 66.67938577 -133.7578125 67.86328125 C-133.13422852 68.4454541 -132.51064453 69.02762695 -131.86816406 69.62744141 C-130.03120814 71.34580661 -128.19905408 73.0691813 -126.3671875 74.79296875 C-125.22411192 75.86214339 -124.08088961 76.93116119 -122.9375 78 C-122.42582275 78.48460693 -121.91414551 78.96921387 -121.38696289 79.46850586 C-116.07604973 84.41610051 -111.47744746 88.24147415 -104 88.375 C-99.0481231 86.40103263 -95.72653216 83.44625428 -92.125 79.625 C-88.9343642 76.28816256 -85.71726066 73.08604313 -82.2109375 70.078125 C-77.39347331 65.92003761 -72.96164189 61.40825733 -68.5 56.875 C-59.5463451 47.77762672 -59.5463451 47.77762672 -55.03125 43.90625 C-50.08832335 39.66311954 -45.56893643 35.01316274 -41 30.375 C-35.73098118 25.02614756 -30.45382343 19.79862708 -24.75097656 14.91210938 C-21.45649321 12.02001969 -18.50420657 8.7892771 -15.4921875 5.609375 C-10.61217976 1.23419565 -6.50448555 -0.04279267 0 0 Z " fill="#000000" transform="translate(341,123.625)"/>
</svg>
