<?xml version="1.0" encoding="UTF-8"?>
<svg version="1.1" xmlns="http://www.w3.org/2000/svg" width="1536" height="1535">
<path d="M0 0 C0.70802135 -0.00044186 1.41604271 -0.00088371 2.14551926 -0.00133896 C26.02226386 -0.00913431 49.68617244 0.62733015 73.4375 3.25 C74.23877319 3.33721313 75.04004639 3.42442627 75.86560059 3.51428223 C157.46691121 12.45529668 236.02152261 35.02093866 364.4375 100.25 C365.4284668 100.84925293 366.41943359 101.44850586 367.44042969 102.06591797 C406.48809207 125.80634122 443.2739229 153.61782727 476.76635742 184.72241211 C478.01368358 185.86259031 479.27379561 186.98881033 480.5402832 188.10766602 C487.38942191 194.17404602 493.8876707 200.54665897 500.34301758 207.02514648 C502.1292467 208.8167595 503.92079347 210.60293055 505.71289062 212.38867188 C510.97763883 217.65036268 516.18190394 222.90953637 521.01196289 228.5793457 C523.20236928 231.14638645 525.51249512 233.59327554 527.8125 236.0625 C532.10501208 240.70904128 536.17088031 245.4909924 540.13671875 250.421875 C542.17567628 252.92816576 544.261251 255.38594318 546.37060547 257.83300781 C552.55912742 265.03140892 558.2953995 272.51572629 563.90917969 280.16845703 C565.39305168 282.18946223 566.88760556 284.20221782 568.3828125 286.21484375 C590.57711483 316.30564523 610.13739878 348.11245709 627.4375 381.25 C628.23534912 382.77778076 628.23534912 382.77778076 629.04931641 384.33642578 C667.53106927 458.53885708 691.05882782 540.03564992 704.6875 671.75 C704.72879028 672.6206308 704.77008057 673.4912616 704.81262207 674.38827515 C705.74472027 694.69321985 705.6245959 714.94793157 704.6875 735.25 C704.64459839 736.18821594 704.60169678 737.12643188 704.55749512 738.09307861 C700.61367524 821.97943136 681.80907239 905.44815977 628.4375 1024.25 C627.93927734 1025.25579102 627.44105469 1026.26158203 626.92773438 1027.29785156 C619.22127215 1042.76813127 610.43810732 1057.50914681 601.33789062 1072.18505859 C599.72184129 1074.79141565 598.11584055 1077.40344209 596.515625 1080.01953125 C590.8045945 1089.31663459 584.72983682 1098.33724705 578.4375 1107.25 C577.93347656 1107.96414063 577.42945313 1108.67828125 576.91015625 1109.4140625 C566.20025427 1124.530782 555.0169676 1139.26487152 542.9375 1153.31640625 C540.61125425 1156.04611025 538.36323847 1158.82308751 536.125 1161.625 C531.3747102 1167.46691833 526.23492915 1172.91366983 521.0625 1178.37890625 C518.42494497 1181.1696167 515.86325935 1184.0170212 513.31640625 1186.890625 C508.10375004 1192.70142771 502.61803158 1198.22041778 497.08959961 1203.72827148 C495.3704133 1205.44207233 493.65667417 1207.16119082 491.94335938 1208.88085938 C486.80534057 1214.02198665 481.65930983 1219.08687714 476.12573242 1223.80688477 C473.55434661 1226.00492692 471.1002842 1228.31935067 468.625 1230.625 C464.06281976 1234.83508254 459.3844548 1238.84444896 454.546875 1242.73828125 C452.14618135 1244.67753504 449.76370166 1246.63286255 447.390625 1248.60546875 C439.2316109 1255.38446067 431.01680357 1262.00477167 422.4375 1268.25 C421.10413634 1269.23172965 419.77080529 1270.21350358 418.4375 1271.1953125 C407.0055464 1279.57190989 395.30536669 1287.50563701 383.4375 1295.25 C382.28459473 1296.00531006 382.28459473 1296.00531006 381.10839844 1296.77587891 C318.11227191 1337.88119458 248.12877396 1367.34821929 76.54162598 1404.03710938 C75.12430424 1404.18051073 73.70723168 1404.32639398 72.29040527 1404.47460938 C25.23592546 1409.38491576 -23.53140331 1409.44326926 -70.5625 1404.25 C-71.36377319 1404.16278687 -72.16504639 1404.07557373 -72.99060059 1403.98571777 C-151.03097541 1395.43487326 -226.39527594 1374.51987663 -407.54980469 1276.74072266 C-409.52674262 1275.27648406 -411.51480517 1273.82898741 -413.5078125 1272.38671875 C-434.37633247 1257.26194982 -454.40196719 1240.93076529 -473.234375 1223.33203125 C-475.04081535 1221.64423123 -476.86363016 1219.98317537 -478.71411133 1218.34350586 C-485.39350672 1212.42314802 -491.74383576 1206.22256175 -498.04077148 1199.90209961 C-499.75457233 1198.1829133 -501.47369082 1196.46917417 -503.19335938 1194.75585938 C-508.33448665 1189.61784057 -513.39937714 1184.47180983 -518.11938477 1178.93823242 C-520.31742692 1176.36684661 -522.63185067 1173.9127842 -524.9375 1171.4375 C-529.23001208 1166.79095872 -533.29588031 1162.0090076 -537.26171875 1157.078125 C-539.30067628 1154.57183424 -541.386251 1152.11405682 -543.49560547 1149.66699219 C-549.68060434 1142.47268907 -555.41456609 1134.99294175 -561.02539062 1127.34472656 C-562.03655018 1125.96674865 -563.05079256 1124.59102671 -564.06835938 1123.21777344 C-580.21408348 1101.42209024 -594.96657037 1078.71454485 -608.5625 1055.25 C-609.14451172 1054.2482373 -609.72652344 1053.24647461 -610.32617188 1052.21435547 C-633.81259261 1011.58441859 -652.2983066 969.00456602 -667.3125 924.5625 C-667.53763275 923.90217773 -667.7627655 923.24185547 -667.99472046 922.56152344 C-668.62466273 920.70660446 -669.24233492 918.84753196 -669.859375 916.98828125 C-670.21354492 915.92649658 -670.56771484 914.86471191 -670.93261719 913.77075195 C-671.5625 911.25 -671.5625 911.25 -670.5625 909.25 C-669.60512939 909.65613525 -668.64775879 910.06227051 -667.66137695 910.48071289 C-649.80405555 918.050824 -631.92613375 925.55916634 -613.9375 932.8125 C-601.97038565 937.63907598 -590.03034169 942.52289749 -578.125 947.5 C-564.49217928 953.19844364 -550.84584106 958.8629722 -537.1875 964.5 C-535.74250122 965.09640793 -535.74250122 965.09640793 -534.26831055 965.7048645 C-530.33752223 967.32717842 -526.40668647 968.94937722 -522.47573853 970.57130432 C-515.57520638 973.41865531 -508.67593943 976.26905457 -501.77734375 979.12109375 C-484.21034066 986.38307844 -466.64071685 993.63842305 -449.05401611 1000.8526001 C-446.60775512 1001.85642945 -444.16198869 1002.86145556 -441.71630859 1003.86669922 C-434.93072976 1006.65380053 -428.14140185 1009.42770713 -421.32421875 1012.13671875 C-420.27685547 1012.55550293 -419.22949219 1012.97428711 -418.15039062 1013.40576172 C-416.29425362 1014.14602915 -414.43511975 1014.87885304 -412.57226562 1015.60205078 C-411.78916016 1015.91513184 -411.00605469 1016.22821289 -410.19921875 1016.55078125 C-409.53623779 1016.81028564 -408.87325684 1017.06979004 -408.19018555 1017.3371582 C-405.75374629 1018.70356684 -404.77059475 1020.62118857 -403.91162109 1023.21679688 C-403.72164551 1023.95994141 -403.53166992 1024.70308594 -403.3359375 1025.46875 C-403.00178833 1026.72896973 -403.00178833 1026.72896973 -402.66088867 1028.01464844 C-402.42217041 1028.91731445 -402.18345215 1029.81998047 -401.9375 1030.75 C-388.6806216 1078.7241286 -356.45931261 1120.32624689 -313.35546875 1145.1328125 C-267.52569242 1170.92017185 -214.47887725 1178.62668638 -163.484375 1164.6796875 C-141.23077575 1158.31773466 -120.2479328 1149.04440166 -101.5625 1135.25 C-100.9756543 1134.81719727 -100.38880859 1134.38439453 -99.78417969 1133.93847656 C-57.30562407 1102.24739065 -30.05024089 1056.13889256 -21.94873047 1003.73583984 C-21.53473804 999.99944046 -21.42090324 996.34052568 -21.37890625 992.58203125 C-21.11740317 972.13841628 -21.11740317 972.13841628 -16.484375 967.17578125 C-13.20419453 964.4455812 -9.61186873 962.41965164 -5.82666016 960.47167969 C-2.03971423 958.42834591 1.34393558 955.84670543 4.8125 953.3125 C6.23498297 952.31096087 7.65948356 951.31228153 9.0859375 950.31640625 C13.56703668 947.16952147 18.00449902 943.96414072 22.4375 940.75 C28.93793428 936.03938833 35.47614183 931.38702179 42.04296875 926.76953125 C47.2031672 923.13545434 52.3267894 919.45328599 57.4375 915.75 C63.93808483 911.03959343 70.4761388 906.38702392 77.04296875 901.76953125 C82.2031672 898.13545434 87.3267894 894.45328599 92.4375 890.75 C98.93808483 886.03959343 105.4761388 881.38702392 112.04296875 876.76953125 C117.2031672 873.13545434 122.3267894 869.45328599 127.4375 865.75 C133.93808483 861.03959343 140.4761388 856.38702392 147.04296875 851.76953125 C152.2031672 848.13545434 157.3267894 844.45328599 162.4375 840.75 C168.93808483 836.03959343 175.4761388 831.38702392 182.04296875 826.76953125 C187.20316799 823.13545378 192.32675463 819.45323916 197.4375 815.75 C203.55705941 811.31647573 209.70043888 806.91914313 215.875 802.5625 C216.59107422 802.0571875 217.30714844 801.551875 218.04492188 801.03125 C226.59765299 795.00866728 226.59765299 795.00866728 231.8359375 794.9765625 C233.49206055 794.95021729 233.49206055 794.95021729 235.18164062 794.92333984 C236.37982422 794.9073877 237.57800781 794.89143555 238.8125 794.875 C305.07699508 793.13705523 368.62816237 767.29722204 416.4375 721.25 C417.09685547 720.61787598 417.75621094 719.98575195 418.43554688 719.33447266 C427.33920942 710.75343598 435.75656967 702.08434033 443.07324219 692.1015625 C444.5390486 690.11217885 446.03818774 688.15053718 447.5390625 686.1875 C489.47108111 630.60788525 506.3333444 558.40654626 496.96484375 489.78808594 C489.08612473 437.27788268 466.76951834 387.27327895 430.4375 348.25 C429.3080773 346.94130385 428.18291241 345.62891836 427.0625 344.3125 C419.26525869 335.40136707 410.76379957 327.53105843 401.4375 320.25 C400.83196289 319.76805176 400.22642578 319.28610352 399.60253906 318.78955078 C376.77539602 300.63082445 351.87169005 286.24136045 324.4375 276.25 C323.67872559 275.97317383 322.91995117 275.69634766 322.13818359 275.41113281 C279.94831475 260.2407137 234.68350944 256.58445494 190.4375 263.25 C189.42478027 263.40033691 188.41206055 263.55067383 187.36865234 263.70556641 C137.867671 271.43031848 91.58347772 295.00395199 54.4375 328.25 C53.41287903 329.15117654 52.38814181 330.05222094 51.36328125 330.953125 C6.46473641 370.82402521 -22.32119541 428.30315608 -31.5625 487.25 C-31.73023926 488.3006665 -31.73023926 488.3006665 -31.90136719 489.37255859 C-33.00005859 496.52098449 -33.61784135 503.46898973 -33.48046875 510.7109375 C-33.30269162 525.90183333 -34.77860848 534.71154094 -44.83349609 546.18701172 C-47.90150793 549.84765843 -50.47720158 553.8433792 -53.125 557.8125 C-54.22225829 559.4243357 -55.32119684 561.03502895 -56.421875 562.64453125 C-56.95232422 563.4226416 -57.48277344 564.20075195 -58.02929688 565.00244141 C-60.30536065 568.33897693 -62.58819476 571.6708191 -64.875 575 C-65.31183105 575.63623291 -65.74866211 576.27246582 -66.19873047 576.92797852 C-68.86363403 580.80200261 -71.54682035 584.66272972 -74.2421875 588.515625 C-81.96350917 599.55943167 -89.5740131 610.66157424 -96.9831543 621.91796875 C-100.73440523 627.59628273 -104.62521251 633.13824728 -108.65185547 638.62451172 C-111.47649147 642.50594995 -114.17944964 646.46582618 -116.875 650.4375 C-118.01028406 652.10295499 -119.1457027 653.76831824 -120.28125 655.43359375 C-120.83683594 656.24940918 -121.39242187 657.06522461 -121.96484375 657.90576172 C-124.26126741 661.27530023 -126.56582878 664.63918738 -128.875 668 C-129.31078369 668.63429932 -129.74656738 669.26859863 -130.19555664 669.92211914 C-134.21067958 675.75638238 -138.26258433 681.56486166 -142.3125 687.375 C-148.96976407 696.92820558 -155.54911574 706.5322011 -162.09765625 716.16015625 C-166.46590799 722.58236212 -170.86802714 728.98103546 -175.27392578 735.37744141 C-176.55823734 737.2438055 -177.84005351 739.11185805 -179.12109375 740.98046875 C-184.72323643 749.14951802 -190.35464229 757.2982604 -196 765.4375 C-196.68666748 766.43015869 -197.37333496 767.42281738 -198.08081055 768.44555664 C-198.733479 769.38520264 -199.38614746 770.32484863 -200.05859375 771.29296875 C-200.63794678 772.12852295 -201.2172998 772.96407715 -201.81420898 773.82495117 C-202.39114502 774.62521729 -202.96808105 775.4254834 -203.5625 776.25 C-204.18068604 777.17176025 -204.79887207 778.09352051 -205.43579102 779.04321289 C-207.5625 781.25 -207.5625 781.25 -210.17382812 781.71191406 C-211.13740234 781.64713867 -212.10097656 781.58236328 -213.09375 781.515625 C-248.81866409 780.02167405 -288.25388233 790.26689822 -317.6328125 810.87890625 C-322.36170628 813.09202854 -326.2886616 811.70424656 -331.07470703 809.99755859 C-332.32675058 809.47281197 -333.57514365 808.93929479 -334.8203125 808.3984375 C-335.50829926 808.10792511 -336.19628601 807.81741272 -336.90512085 807.51809692 C-338.39080267 806.889868 -339.87494216 806.25798147 -341.35766602 805.62280273 C-345.39018454 803.89578783 -349.43429816 802.19623388 -353.4765625 800.4921875 C-354.31241882 800.13892395 -355.14827515 799.7856604 -356.00946045 799.42169189 C-363.89774379 796.09313183 -371.82782678 792.87255103 -379.76940918 789.67367554 C-392.69324128 784.46785139 -405.58313501 779.18755869 -418.4375 773.8125 C-430.89903577 768.602297 -443.37658019 763.43363974 -455.875 758.3125 C-456.68517578 757.98048584 -457.49535156 757.64847168 -458.33007812 757.30639648 C-463.25631379 755.2878724 -468.183087 753.27066307 -473.11004639 751.25390625 C-480.38661166 748.27526098 -487.66248353 745.29492607 -494.9375 742.3125 C-495.73838043 741.98420197 -496.53926086 741.65590393 -497.3644104 741.31765747 C-510.80523023 735.80642036 -524.22671647 730.24931832 -537.64294434 724.67852783 C-550.14658947 719.48736951 -562.66063933 714.32238787 -575.1875 709.1875 C-575.99065643 708.85827545 -576.79381287 708.5290509 -577.62130737 708.18984985 C-582.46785429 706.20348838 -587.3148286 704.21817139 -592.16192627 702.2331543 C-613.0159759 693.69238413 -633.86445615 685.13810728 -654.69723511 676.54556274 C-656.64830841 675.74102004 -658.59957324 674.93694158 -660.55105591 674.13339233 C-673.93820444 668.62005614 -687.27023443 662.98838959 -700.5625 657.25 C-698.10563773 574.94231573 -674.97113722 491.17528506 -551.5625 268.25 C-550.87800781 267.38246094 -550.19351563 266.51492188 -549.48828125 265.62109375 C-544.48192411 259.29460186 -539.28706386 253.13311847 -534.05078125 246.99707031 C-532.50856114 245.18668201 -530.97279764 243.37094842 -529.4375 241.5546875 C-520.29882084 230.77602437 -520.29882084 230.77602437 -515.22583008 225.91430664 C-513.61885073 224.30638382 -512.16657118 222.64096579 -510.703125 220.90234375 C-505.71905856 215.17102818 -500.31562299 209.85380972 -494.93823242 204.49536133 C-493.12889067 202.69137915 -491.32495681 200.88211335 -489.52148438 199.07226562 C-484.22600379 193.77373058 -478.93575381 188.53131665 -473.22875977 183.67114258 C-470.66280089 181.48265223 -468.21770866 179.17359296 -465.75 176.875 C-461.18781976 172.66491746 -456.5094548 168.65555104 -451.671875 164.76171875 C-449.27118135 162.82246496 -446.88870166 160.86713745 -444.515625 158.89453125 C-436.3566109 152.11553933 -428.14180357 145.49522833 -419.5625 139.25 C-418.22913634 138.26827035 -416.89580529 137.28649642 -415.5625 136.3046875 C-363.31040352 98.01499805 -306.21362303 66.94148526 -245.5625 44.25 C-244.42248535 43.82235352 -243.2824707 43.39470703 -242.10791016 42.95410156 C-179.53872545 19.64833729 -114.06237925 6.31782652 -47.5625 1.25 C-45.76703735 1.10643066 -45.76703735 1.10643066 -43.93530273 0.95996094 C-29.31133391 -0.06473607 -14.65295081 0.00419537 0 0 Z " fill="#FFFFFF" transform="translate(766.5625,63.75)"/>
<path d="M0 0 C35.88284003 31.31675873 59.32107226 75.22384025 62.75 123.0625 C64.07666746 154.5142888 59.37780559 184.51616333 45.75 213.0625 C45.40598145 213.78630859 45.06196289 214.51011719 44.70751953 215.25585938 C35.96719317 233.33142476 24.26896302 248.56057687 10.109375 262.69921875 C8.74115559 264.06970343 7.38736532 265.45556556 6.07421875 266.87890625 C-20.03053752 294.72813311 -63.26882643 312.66261394 -101.16137695 314.22363281 C-102.52027745 314.24311771 -103.87926904 314.25690481 -105.23828125 314.265625 C-105.97474884 314.27268463 -106.71121643 314.27974426 -107.47000122 314.28701782 C-138.32572822 314.51564494 -138.32572822 314.51564494 -152.25 311.0625 C-153.47783203 310.76448486 -153.47783203 310.76448486 -154.73046875 310.46044922 C-179.72233639 304.2264912 -202.92990528 294.0722716 -223.25 278.0625 C-224.08917969 277.42570312 -224.92835938 276.78890625 -225.79296875 276.1328125 C-262.82040274 247.14530879 -286.40242584 204.04533741 -292.37060547 157.52001953 C-296.99700796 115.10097018 -287.36163967 68.48238866 -261.25 34.0625 C-260.49460937 33.02738281 -259.73921875 31.99226563 -258.9609375 30.92578125 C-230.61221095 -7.42167169 -189.26720675 -32.58856729 -142.2421875 -40.39453125 C-91.11268332 -47.6785586 -39.38359024 -33.53384047 0 0 Z M-216.51000977 47.61914062 C-240.11156452 74.73707798 -251.002185 110.40194083 -249.0390625 146.0390625 C-246.83562431 174.58400275 -235.53706841 201.17518627 -217.25 223.0625 C-216.82348145 223.57554687 -216.39696289 224.08859375 -215.95751953 224.6171875 C-194.77323412 249.74811246 -163.12483005 266.02837571 -130.6003418 269.86621094 C-95.46812604 272.80028193 -59.87972583 264.93154843 -32.25 242.0625 C-27.03924608 237.5961395 -22.07592127 232.94112244 -17.25 228.0625 C-16.48300781 227.29292969 -15.71601562 226.52335938 -14.92578125 225.73046875 C10.57740536 198.96266131 19.86744585 163.96770003 19.1015625 127.859375 C18.82645713 118.28540879 17.36839937 109.26024636 14.75 100.0625 C14.56808105 99.39557129 14.38616211 98.72864258 14.19873047 98.04150391 C9.04136153 79.54595292 -0.84987049 62.6096484 -13.25 48.0625 C-14.06210938 47.1034375 -14.87421875 46.144375 -15.7109375 45.15625 C-36.81379415 20.85133616 -67.48236566 5.97467896 -99.25 2.0625 C-104.23251019 1.74788407 -109.19584242 1.68036197 -114.1875 1.6875 C-115.20221375 1.68881424 -115.20221375 1.68881424 -116.23742676 1.69015503 C-155.42634242 1.85663937 -190.35288392 18.6711244 -216.51000977 47.61914062 Z " fill="#FFFFFF" transform="translate(1114.25,454.9375)"/>
<path d="M0 0 C1.23428076 0.6134709 2.46866024 1.2267432 3.703125 1.83984375 C15.34239951 7.72594894 25.25204697 15.15928671 34.83203125 24.0234375 C37.09093245 26.13553034 37.09093245 26.13553034 40.0625 28.375 C44.62447138 32.45165527 48.2679599 37.16640613 52 42 C52.61198242 42.79156494 52.61198242 42.79156494 53.23632812 43.59912109 C71.24648018 67.14056007 83.44104841 97.09608982 84 127 C84.03867187 128.28519531 84.07734375 129.57039063 84.1171875 130.89453125 C84.83503822 164.88848931 74.67808641 200.38965173 53 227 C52.5757373 227.52287598 52.15147461 228.04575195 51.71435547 228.58447266 C25.91383729 260.21416652 -10.02155625 281.14546361 -50.9609375 285.59375 C-92.03901294 289.29168937 -131.79588559 277.05944413 -163.62109375 250.91015625 C-176.18343318 240.26318362 -186.45524918 228.11317502 -195 214.0625 C-195.56122559 213.14041748 -195.56122559 213.14041748 -196.13378906 212.19970703 C-198.27061186 208.57067295 -199.81596279 205.03929359 -201 201 C-186.35646154 206.74212939 -171.82154508 212.72230445 -157.32107544 218.81494141 C-100.66218186 244.07234578 -100.66218186 244.07234578 -40 240 C-39.32227539 239.79101074 -38.64455078 239.58202148 -37.94628906 239.36669922 C-23.2243934 234.71602939 -10.7337088 226.96298547 1 217 C1.825 216.36964844 2.65 215.73929688 3.5 215.08984375 C8.0042545 211.32456851 11.41049084 206.61862578 15 202 C15.61230469 201.21496094 16.22460938 200.42992187 16.85546875 199.62109375 C34.5153589 175.73780982 41.14373092 145.60267501 36.8125 116.4375 C32.07555298 87.8927431 16.72063588 61.65704627 -6.78466797 44.57299805 C-7.43322754 44.11578369 -8.08178711 43.65856934 -8.75 43.1875 C-9.31992676 42.77991455 -9.88985352 42.3723291 -10.47705078 41.95239258 C-23.29058498 33.34872493 -38.5614145 27.98913787 -52.77752686 22.18765259 C-57.79941113 20.1380619 -62.81540772 18.07414444 -67.83203125 16.01171875 C-68.84483154 15.59572922 -69.85763184 15.17973969 -70.90112305 14.75114441 C-81.25009467 10.49599004 -91.56618817 6.16388546 -101.875 1.8125 C-102.7038974 1.46276123 -103.5327948 1.11302246 -104.3868103 0.75268555 C-108.92548572 -1.16264469 -113.46322863 -3.08016428 -118 -5 C-117 -7 -117 -7 -113.59765625 -8.18359375 C-108.75986595 -9.5640289 -103.88878137 -10.81396428 -99 -12 C-98.29133789 -12.17241211 -97.58267578 -12.34482422 -96.85253906 -12.52246094 C-64.90268028 -19.90731537 -29.04955528 -14.99448438 0 0 Z " fill="#FFFFFF" transform="translate(618,905)"/>
</svg>
