<?xml version="1.0" encoding="UTF-8"?>
<svg version="1.1" xmlns="http://www.w3.org/2000/svg" width="512" height="512">
<path d="M0 0 C1.01790619 0.00215515 2.03581238 0.0043103 3.08456421 0.00653076 C17.69363523 0.05620146 32.02575853 0.30709809 46.375 3.3125 C47.34985352 3.51117676 48.32470703 3.70985352 49.32910156 3.91455078 C97.7109774 14.03517194 141.69928269 35.9516877 177.375 70.3125 C178.3640332 71.26068604 178.3640332 71.26068604 179.37304688 72.22802734 C188.86130305 81.37247479 197.6012044 90.66984009 205.375 101.3125 C206.23306152 102.46355017 207.09113451 103.61459177 207.94921875 104.765625 C213.98736829 112.95680614 219.34595521 121.47054105 224.375 130.3125 C224.73948242 130.94430176 225.10396484 131.57610352 225.47949219 132.22705078 C247.08534998 169.97532572 256.85198095 212.74189997 256.6875 255.9375 C256.68534485 256.95540619 256.6831897 257.97331238 256.68096924 259.02206421 C256.63129854 273.63113523 256.38040191 287.96325853 253.375 302.3125 C253.07698486 303.77478027 253.07698486 303.77478027 252.77294922 305.26660156 C242.65232806 353.6484774 220.7358123 397.63678269 186.375 433.3125 C185.74287598 433.97185547 185.11075195 434.63121094 184.45947266 435.31054688 C175.31502521 444.79880305 166.01765991 453.5387044 155.375 461.3125 C154.22394983 462.17056152 153.07290823 463.02863451 151.921875 463.88671875 C143.73224019 469.92427396 135.22961724 475.30707302 126.375 480.3125 C125.66778809 480.7146875 124.96057617 481.116875 124.23193359 481.53125 C101.09654164 494.5566741 75.92537591 503.30551461 49.9375 508.625 C49.21860596 508.77235596 48.49971191 508.91971191 47.7590332 509.0715332 C33.08339502 511.86090125 18.55831162 512.66142619 3.64770508 512.62817383 C0.70811513 512.6250221 -2.2304558 512.64854926 -5.16992188 512.67382812 C-18.54306192 512.71848737 -31.43916711 511.51301542 -44.625 509.3125 C-46.33055054 509.03031616 -46.33055054 509.03031616 -48.07055664 508.74243164 C-109.33381836 497.7379236 -167.76195468 461.60504511 -204.625 411.3125 C-205.26211914 410.45857666 -205.26211914 410.45857666 -205.91210938 409.58740234 C-212.42768015 400.84658179 -218.26088547 391.80163672 -223.625 382.3125 C-224.0271875 381.60528809 -224.429375 380.89807617 -224.84375 380.16943359 C-237.8691741 357.03404164 -246.61801461 331.86287591 -251.9375 305.875 C-252.08485596 305.15610596 -252.23221191 304.43721191 -252.3840332 303.6965332 C-255.35789088 288.05024391 -255.99800362 272.57681954 -255.9375 256.6875 C-255.93534485 255.66959381 -255.9331897 254.65168762 -255.93096924 253.60293579 C-255.88129854 238.99386477 -255.63040191 224.66174147 -252.625 210.3125 C-252.42632324 209.33764648 -252.22764648 208.36279297 -252.02294922 207.35839844 C-241.90232806 158.9765226 -219.9858123 114.98821731 -185.625 79.3125 C-184.99287598 78.65314453 -184.36075195 77.99378906 -183.70947266 77.31445312 C-174.56502521 67.82619695 -165.26765991 59.0862956 -154.625 51.3125 C-153.47394983 50.45443848 -152.32290823 49.59636549 -151.171875 48.73828125 C-142.98224019 42.70072604 -134.47961724 37.31792698 -125.625 32.3125 C-124.91778809 31.9103125 -124.21057617 31.508125 -123.48193359 31.09375 C-100.34654164 18.0683259 -75.17537591 9.31948539 -49.1875 4 C-48.46860596 3.85264404 -47.74971191 3.70528809 -47.0090332 3.5534668 C-31.36274391 0.57960912 -15.88931954 -0.06050362 0 0 Z M85.375 159.1875 C84.75527313 159.39958099 84.13554626 159.61166199 83.49703979 159.83016968 C64.27504469 166.41297063 45.56847088 174.44012127 26.83666992 182.28320312 C23.97497205 183.4797635 21.11024718 184.66889146 18.24479675 185.85643005 C-21.10821683 202.16858856 -60.15870943 219.22436513 -99.21565247 236.22938538 C-105.30919077 238.87966747 -111.41034329 241.51105643 -117.52124023 244.12106323 C-121.15288009 245.67273759 -124.78127362 247.23191493 -128.40936279 248.79187012 C-130.0677421 249.5023696 -131.72773093 250.20912647 -133.38946533 250.91174316 C-147.78338232 256.664055 -147.78338232 256.664055 -158.625 267.3125 C-158.85500198 269.83679495 -158.85500198 269.83679495 -157.625 272.3125 C-153.49829321 276.22770875 -150.02651822 278.22199698 -144.55859375 280.03125 C-143.89112625 280.25515915 -143.22365875 280.4790683 -142.53596497 280.70976257 C-140.38287398 281.42613956 -138.22363603 282.12080606 -136.0625 282.8125 C-135.32567993 283.05239655 -134.58885986 283.29229309 -133.82971191 283.53945923 C-102.44941825 294.49502505 -102.44941825 294.49502505 -71.046875 288.015625 C-62.63266006 283.35174586 -54.79752636 277.72534177 -46.87890625 272.28125 C-38.23236273 266.33917129 -29.53485045 260.4722723 -20.83840942 254.60357666 C-18.07733928 252.73970811 -15.31782113 250.87355838 -12.55834961 249.00732422 C-1.42220306 241.4861294 9.78901222 234.09180854 21.07647705 226.79978943 C25.75399924 223.77313733 30.41908273 220.72733244 35.08512878 217.68302917 C44.00531765 211.87712035 44.00531765 211.87712035 49.375 212.3125 C50.375 213.3125 50.375 213.3125 50.39086914 216.3828125 C49.53176846 221.65462381 45.83006206 224.62321305 42.12109375 228.1875 C41.38681656 228.91565918 40.65253937 229.64381836 39.89601135 230.39404297 C37.54855783 232.71461898 35.18085745 235.01328288 32.8125 237.3125 C31.24542464 238.85803759 29.6796548 240.40490009 28.11523438 241.953125 C21.89651672 248.08189005 15.67589101 254.1455132 9.05702209 259.84448242 C7.06766636 261.58073142 5.20869985 263.41331086 3.375 265.3125 C0.17470478 268.56279983 -3.16724576 271.55974245 -6.625 274.53125 C-8.70837078 276.3867521 -10.66781207 278.32473101 -12.625 280.3125 C-15.20509215 282.93290609 -17.83603607 285.41573412 -20.625 287.8125 C-32.13691917 297.5286652 -32.13691917 297.5286652 -38.375 310.8125 C-35.77760699 322.93366737 -19.40543735 330.9203695 -9.875 337.1875 C-7.48933299 338.7645881 -5.1058174 340.34490966 -2.72265625 341.92578125 C-2.08926834 342.3456279 -1.45588043 342.76547455 -0.80329895 343.19804382 C4.44306884 346.6809375 9.66430986 350.20022192 14.87890625 353.73046875 C15.69098541 354.28019348 16.50306458 354.82991821 17.3397522 355.39630127 C20.5760248 357.58796717 23.81172204 359.78047112 27.04553223 361.97576904 C34.71904594 367.18460576 42.39948744 372.38100187 50.1796875 377.4296875 C51.26362793 378.13335449 52.34756836 378.83702148 53.46435547 379.56201172 C59.93573696 383.45395982 66.7888746 385.60070997 74.375 384.3125 C82.5191467 380.16359508 85.60809485 373.61855182 88.375 365.3125 C89.60983055 360.32956014 90.52965137 355.30003822 91.4375 350.25 C91.72909893 348.66613593 92.02093875 347.0823162 92.31298828 345.49853516 C99.25742494 307.52106189 105.54265605 269.4131579 111.375 231.25 C111.5585907 230.05316589 111.7421814 228.85633179 111.93133545 227.62322998 C113.78551147 215.49747742 115.55049158 203.36438943 117.09765625 191.1953125 C117.2217688 190.23008163 117.34588135 189.26485077 117.47375488 188.27037048 C119.70369597 173.794802 119.70369597 173.794802 116.625 159.9375 C113.87140951 156.72497777 112.01808575 155.5254113 107.81640625 154.98095703 C99.69765991 154.8804366 93.00261182 156.50795773 85.375 159.1875 Z " fill="#FFFFFF" transform="translate(255.625,-0.3125)"/>
</svg>
